<svg width="40" height="40" viewBox="0 0 40 40" fill="none" xmlns="http://www.w3.org/2000/svg">
<path fill-rule="evenodd" clip-rule="evenodd" d="M1.81972 0C0.814725 0 0 0.814036 0 1.81818C0 2.82233 0.814725 3.63636 1.81972 3.63636H4.03836L10.5243 29.558C8.6123 30.4065 7.27888 32.3204 7.27888 34.5455C7.27888 37.558 9.72303 40 12.738 40C15.753 40 18.1972 37.558 18.1972 34.5455C18.1972 33.908 18.0876 33.296 17.8866 32.7273H25.7867C25.5856 33.296 25.4761 33.908 25.4761 34.5455C25.4761 37.558 27.9201 40 30.9352 40C33.9503 40 36.3944 37.558 36.3944 34.5455C36.3944 31.5329 33.9503 29.0909 30.9352 29.0909H14.1588L13.249 25.4545H30.9352C34.6915 25.4545 36.9438 23.0835 38.1935 20.4653C39.4149 17.9067 39.84 14.8489 39.9883 12.6249C40.1947 9.52753 37.6323 7.27273 34.795 7.27273H8.69968L7.56914 2.75442C7.16409 1.13562 5.70839 0 4.03836 0H1.81972ZM30.9352 21.8182H12.3391L9.60954 10.9091H34.795C35.8015 10.9091 36.4059 11.6486 36.3569 12.3832C36.2186 14.4585 35.8314 16.9669 34.9088 18.8998C34.0146 20.7729 32.7915 21.8182 30.9352 21.8182ZM30.9352 36.3524C29.9364 36.3524 29.1268 35.5435 29.1268 34.5455C29.1268 33.5475 29.9364 32.7385 30.9352 32.7385C31.9341 32.7385 32.7437 33.5475 32.7437 34.5455C32.7437 35.5435 31.9341 36.3524 30.9352 36.3524ZM10.9295 34.5455C10.9295 35.5435 11.7392 36.3524 12.738 36.3524C13.7368 36.3524 14.5465 35.5435 14.5465 34.5455C14.5465 33.5475 13.7368 32.7385 12.738 32.7385C11.7392 32.7385 10.9295 33.5475 10.9295 34.5455Z" fill="white"/>
</svg>
