<svg width="247" height="50" viewBox="0 0 247 50" fill="none" xmlns="http://www.w3.org/2000/svg">
<g clip-path="url(#clip0_316_9203)">
<path d="M27.4459 21.6348L27.3946 32.0185C27.3881 33.8734 28.4532 34.7913 29.9031 36.1044L45.8719 49.943L60.0636 49.994L27.4395 21.6348H27.4459Z" fill="white"/>
<path d="M15.5075 0.484059C15.5075 0.0697297 15.9951 -0.153371 16.3095 0.120724L23.4053 6.23368C24.8168 7.45117 24.9515 8.93001 24.8424 10.804L24.7975 42.4971H15.4883L15.5075 0.484059Z" fill="white"/>
<path d="M0 9.21672L0.0192473 0.0568538L16.0586 0.00585938L16.0779 9.19122L0 9.21035L0 9.21672ZM0.660822 0.687909L0.647991 8.57929L15.4363 8.56017L15.4235 0.649664L0.660822 0.694284V0.687909Z" fill="white"/>
<path d="M27.5683 33.2231L27.3758 22.1509C27.3373 20.0347 28.6269 18.8299 29.955 17.7782L40.1817 9.29398L55.3613 9.05176L27.5683 33.2231ZM40.4191 9.93141L30.3592 18.2754C28.8515 19.4737 27.9853 20.4872 28.0174 22.1382L28.1842 31.8335L53.6227 9.72106L40.4191 9.93141Z" fill="white"/>
<path d="M86.3804 14.833H92.0711V42.4975H86.3804V31.4699H71.7845V42.4975H66.0938V14.833H71.7845V25.8223H86.3804V14.833Z" fill="white"/>
<path d="M105.275 22.6162C106.629 22.6162 107.951 22.7501 109.253 23.0114C110.549 23.2728 111.71 23.6998 112.73 24.299C113.751 24.8918 114.565 25.6822 115.175 26.6703C115.784 27.6583 116.092 28.8885 116.092 30.3674V36.9648C116.092 37.4683 116.201 37.7998 116.413 37.9719C116.625 38.144 116.984 38.2269 117.485 38.2269H118.043V42.4976H114.386C113.853 42.4976 113.346 42.4084 112.852 42.2236C112.358 42.0387 111.935 41.7837 111.582 41.4523C111.223 41.1208 110.94 40.7511 110.729 40.324C110.517 39.9033 110.408 39.4699 110.408 39.0173V37.4365C110.196 38.8579 109.645 39.9416 108.759 40.6746C107.867 41.414 106.937 41.9303 105.955 42.2363C104.974 42.5423 103.89 42.6889 102.696 42.6889C102.459 42.6889 101.907 42.6698 101.047 42.6315C100.188 42.5933 99.2189 42.3319 98.1411 41.8411C97.0696 41.3566 96.1843 40.6873 95.4978 39.8459C94.8049 39.0045 94.4648 38.0165 94.4648 36.8819C94.4648 35.4349 94.8626 34.3194 95.6582 33.5418C96.4537 32.7641 97.4417 32.1968 98.6222 31.8398C99.8027 31.4829 101.086 31.2725 102.478 31.2088C103.87 31.145 105.153 31.094 106.334 31.0685C107.514 31.043 108.49 30.9538 109.26 30.8136C110.029 30.667 110.414 30.3737 110.414 29.9275V29.8893C110.389 28.7802 109.94 27.9897 109.061 27.518C108.188 27.0463 106.924 26.8041 105.282 26.8041C104.589 26.8041 103.934 26.836 103.312 26.8997C102.69 26.9635 102.138 27.1101 101.663 27.3332C101.189 27.5563 100.791 27.875 100.47 28.283C100.149 28.6909 99.9631 29.2009 99.9118 29.8064L94.8177 29.5323C94.869 28.3212 95.2219 27.2758 95.8699 26.3898C96.5179 25.5101 97.3391 24.7898 98.3335 24.2353C99.328 23.6807 100.431 23.2728 101.657 23.0114C102.876 22.7501 104.082 22.6162 105.275 22.6162ZM100.342 36.7225C100.342 37.3791 100.592 37.8954 101.099 38.2651C101.599 38.6348 102.138 38.8643 102.709 38.9535C103.28 39.0492 103.774 39.0938 104.204 39.0938C104.576 39.0938 105.076 39.0555 105.718 38.9727C106.36 38.8898 107.053 38.7049 107.803 38.399C108.56 38.0994 109.183 37.6978 109.67 37.1942C110.158 36.697 110.408 36.1297 110.408 35.4923V33.3187C110.01 33.6119 109.484 33.8095 108.836 33.9115C108.188 34.0198 107.489 34.0899 106.751 34.1282C106.007 34.1664 105.25 34.1983 104.486 34.2302C103.716 34.2557 103.03 34.3449 102.42 34.4852C101.811 34.6318 101.31 34.874 100.925 35.2182C100.541 35.5624 100.348 36.0596 100.348 36.7225H100.342Z" fill="white"/>
<path d="M120.43 19.4161V14.833H126.159V19.4161H120.43ZM126.076 22.7371V42.4975H120.507V22.7371H126.076Z" fill="white"/>
<path d="M143.456 22.7371H151.649L142.025 30.4819L152.245 42.4592H149.936V42.4975L149.897 42.4592H145.047L137.726 33.8029L134.268 36.6076V42.4975H128.539V14.833H134.268L134.146 28.8628C134.146 29.309 134.076 29.7935 133.928 30.3034C133.781 30.8197 133.614 31.2723 133.428 31.6675L133.505 31.7058C133.691 31.3106 133.941 30.9026 134.262 30.4819C134.583 30.0612 134.923 29.7042 135.295 29.4174L143.449 22.7371H143.456Z" fill="white"/>
<path d="M169.272 27.3204H162.985C162.427 27.3204 161.977 27.3587 161.631 27.4415C161.285 27.5244 161.015 27.671 160.816 27.8941C160.617 28.1172 160.483 28.4423 160.418 28.863C160.354 29.2837 160.316 29.8383 160.316 30.5203V42.4976H154.625V28.3913C154.625 27.416 154.728 26.581 154.946 25.8798C155.158 25.185 155.491 24.5922 155.94 24.1205C156.389 23.6488 156.98 23.2982 157.711 23.0751C158.442 22.852 159.309 22.7373 160.316 22.7373H169.266V27.3204H169.272Z" fill="white"/>
<path d="M194.255 32.617C194.255 34.3317 193.921 35.8169 193.26 37.0854C192.6 38.3475 191.714 39.4056 190.617 40.247C189.514 41.0884 188.23 41.7131 186.761 42.1211C185.292 42.529 183.733 42.733 182.084 42.733C180.435 42.733 178.883 42.529 177.407 42.1211C175.938 41.7131 174.642 41.0884 173.532 40.247C172.416 39.4056 171.53 38.3475 170.869 37.0854C170.209 35.8233 169.875 34.3317 169.875 32.617C169.875 30.9023 170.209 29.4171 170.869 28.1486C171.53 26.8865 172.422 25.8284 173.532 24.987C174.648 24.1455 175.938 23.5209 177.407 23.1129C178.876 22.705 180.435 22.501 182.084 22.501C183.733 22.501 185.286 22.7113 186.761 23.132C188.23 23.5527 189.52 24.1774 190.617 25.0061C191.714 25.8347 192.6 26.8865 193.26 28.1486C193.921 29.4107 194.255 30.9023 194.255 32.617ZM188.564 32.617C188.564 31.7246 188.391 30.9342 188.044 30.2458C187.698 29.5637 187.23 28.9773 186.633 28.4864C186.036 28.002 185.343 27.6323 184.548 27.3773C183.752 27.1287 182.931 27.0012 182.084 27.0012C181.237 27.0012 180.422 27.1287 179.64 27.3773C178.857 27.6259 178.164 27.9892 177.548 28.4673C176.939 28.939 176.458 29.5318 176.098 30.2458C175.739 30.9597 175.559 31.7501 175.559 32.617C175.559 33.4839 175.726 34.3189 176.06 35.0265C176.393 35.7404 176.855 36.3268 177.452 36.7858C178.049 37.2447 178.742 37.5953 179.537 37.8312C180.333 38.067 181.18 38.1881 182.084 38.1881C182.989 38.1881 183.791 38.067 184.573 37.8312C185.356 37.5953 186.043 37.2384 186.639 36.7667C187.236 36.295 187.704 35.7085 188.051 35.0073C188.397 34.3126 188.571 33.5094 188.571 32.617H188.564Z" fill="white"/>
<path d="M216.607 27.3198C216.928 26.6378 217.287 25.9876 217.704 25.382C218.115 24.7765 218.583 24.2538 219.116 23.8203C219.648 23.3869 220.245 23.0427 220.906 22.7941C221.566 22.5455 222.323 22.418 223.17 22.418C224.255 22.418 225.23 22.6028 226.096 22.9725C226.956 23.3422 227.687 23.9032 228.284 24.6553C228.88 25.4075 229.336 26.3573 229.657 27.4983C229.977 28.6393 230.131 30.0098 230.131 31.5906V42.497H224.441V33.2479C224.441 31.5332 224.094 30.252 223.408 29.3978C222.715 28.5437 221.804 28.1166 220.662 28.1166C220.187 28.1166 219.687 28.2313 219.173 28.4544C218.654 28.6775 218.179 29.0536 217.743 29.5827C217.306 30.1117 216.941 30.8065 216.645 31.6798C216.35 32.5467 216.209 33.6176 216.209 34.8797V42.5098H210.518V33.2607C210.518 31.4695 210.198 30.1627 209.563 29.3468C208.927 28.5309 208.048 28.123 206.938 28.123C206.515 28.123 206.027 28.2377 205.489 28.4608C204.943 28.6839 204.443 29.06 203.974 29.5891C203.512 30.1181 203.121 30.8065 202.8 31.6607C202.48 32.5149 202.326 33.5921 202.326 34.8797V42.5098H196.635V22.7494H202.326V27.0202C202.326 27.4664 202.293 27.9636 202.223 28.4991C202.159 29.0409 202.069 29.5317 201.966 29.9843H202.043C202.146 29.5381 202.261 29.0472 202.383 28.5245C202.505 27.9955 202.666 27.5238 202.884 27.1031C203.57 25.4968 204.488 24.3175 205.63 23.5653C206.772 22.8132 207.952 22.4371 209.171 22.4371C210.178 22.4371 211.051 22.5837 211.795 22.8705C212.539 23.1638 213.168 23.5271 213.688 23.9797C214.208 24.4259 214.625 24.9486 214.939 25.5414C215.26 26.1342 215.51 26.7079 215.696 27.2624C215.856 27.7086 215.933 28.2058 215.933 28.7476C215.933 29.2895 215.921 29.7803 215.895 30.2265H215.972C215.998 29.7803 216.062 29.2895 216.171 28.7668C216.28 28.2377 216.421 27.766 216.607 27.3453V27.3198Z" fill="white"/>
<path d="M246.999 21.7873C246.999 25.4653 244.092 28.3465 240.314 28.3465C236.535 28.3465 233.59 25.4589 233.59 21.7873C233.59 18.1158 236.573 15.3047 240.314 15.3047C244.054 15.3047 246.999 18.1922 246.999 21.7873ZM235.264 21.7873C235.264 24.6749 237.414 26.9633 240.358 26.9633C243.303 26.9633 245.331 24.6685 245.331 21.8256C245.331 18.9827 243.22 16.6114 240.32 16.6114C237.42 16.6114 235.271 18.9444 235.271 21.7873H235.264ZM239.281 25.1848H237.767V18.7022C238.363 18.5811 239.197 18.5046 240.275 18.5046C241.507 18.5046 242.065 18.7022 242.54 18.9763C242.899 19.2504 243.175 19.7667 243.175 20.3978C243.175 21.1117 242.617 21.6599 241.821 21.9021V21.9786C242.456 22.2144 242.816 22.6925 243.015 23.5594C243.213 24.5474 243.335 24.9426 243.489 25.1785H241.86C241.661 24.9426 241.539 24.3498 241.34 23.5977C241.218 22.8837 240.82 22.5714 239.986 22.5714H239.268V25.1785L239.281 25.1848ZM239.319 21.5133H240.038C240.872 21.5133 241.552 21.2392 241.552 20.5635C241.552 19.9707 241.116 19.5755 240.16 19.5755C239.762 19.5755 239.486 19.6137 239.326 19.652V21.5069L239.319 21.5133Z" fill="white"/>
</g>
<defs>
<clipPath id="clip0_316_9203">
<rect width="247" height="50" fill="white"/>
</clipPath>
</defs>
</svg>
