<svg width="72" height="72" viewBox="0 0 72 72" fill="none" xmlns="http://www.w3.org/2000/svg">
  <rect width="72" height="72" rx="14" fill="#0e375d"/>
  <g transform="translate(10 14.35) scale(0.866)">
    <path d="M27.4459 21.6348L27.3946 32.0185C27.3881 33.8734 28.4532 34.7913 29.9031 36.1044L45.8719 49.943L60.0636 49.994L27.4395 21.6348H27.4459Z" fill="white"/>
    <path d="M15.5075 0.484059C15.5075 0.0697297 15.9951 -0.153371 16.3095 0.120724L23.4053 6.23368C24.8168 7.45117 24.9515 8.93001 24.8424 10.804L24.7975 42.4971H15.4883L15.5075 0.484059Z" fill="white"/>
    <path d="M0 9.21672L0.0192473 0.0568538L16.0586 0.00585938L16.0779 9.19122L0 9.21035L0 9.21672ZM0.660822 0.687909L0.647991 8.57929L15.4363 8.56017L15.4235 0.649664L0.660822 0.694284V0.687909Z" fill="white"/>
    <path d="M27.5683 33.2231L27.3758 22.1509C27.3373 20.0347 28.6269 18.8299 29.955 17.7782L40.1817 9.29398L55.3613 9.05176L27.5683 33.2231ZM40.4191 9.93141L30.3592 18.2754C28.8515 19.4737 27.9853 20.4872 28.0174 22.1382L28.1842 31.8335L53.6227 9.72106L40.4191 9.93141Z" fill="white"/>
  </g>
</svg>
